<?xml version="1.0" standalone="no"?>
<!DOCTYPE svg PUBLIC "-//W3C//DTD SVG 20010904//EN"
 "http://www.w3.org/TR/2001/REC-SVG-20010904/DTD/svg10.dtd">
<svg version="1.0" xmlns="http://www.w3.org/2000/svg"
 width="200.000000pt" height="200.000000pt" viewBox="0 0 200.000000 200.000000"
 preserveAspectRatio="xMidYMid meet">

<style>
  .icon { fill: #5b08e4; }
  @media (prefers-color-scheme: dark) {
    .icon { fill: #ffffff; }
  }
</style>

<g transform="translate(0.000000,200.000000) scale(0.100000,-0.100000)"
fill="none" stroke="none" class="icon">
<path d="M920 1879 c-46 -19 -87 -58 -109 -103 -18 -39 -21 -61 -18 -153 2
-96 -1 -118 -26 -193 -82 -246 -308 -631 -469 -798 -67 -69 -104 -96 -152
-112 -76 -24 -146 -121 -146 -201 0 -76 50 -153 123 -191 62 -31 153 -23 209
20 120 90 253 119 584 129 354 10 655 -35 720 -109 50 -56 171 -75 243 -39 71
37 121 115 121 190 0 81 -72 179 -148 202 -130 39 -353 332 -527 690 -101 210
-118 271 -119 415 -1 116 -2 122 -31 169 -40 64 -97 95 -174 94 -31 0 -67 -5
-81 -10z m130 -151 c11 -12 20 -32 20 -45 0 -29 -42 -73 -68 -73 -33 0 -72 38
-72 71 0 62 78 92 120 47z m27 -350 c183 -192 404 -572 484 -833 11 -33 19
-72 19 -87 0 -25 -5 -29 -67 -47 -135 -40 -208 -46 -513 -46 -305 0 -378 6
-512 46 -65 19 -68 21 -68 50 0 115 189 502 366 750 73 103 191 229 214 229 9
0 44 -28 77 -62z m-819 -1008 c45 -42 15 -120 -47 -120 -33 0 -71 39 -71 72 0
26 44 68 73 68 13 0 33 -9 45 -20z m1577 -5 c30 -30 31 -54 4 -89 -40 -50
-119 -21 -119 44 0 35 34 70 67 70 13 0 35 -11 48 -25z"/>
</g>
</svg>
